<svg xmlns="http://www.w3.org/2000/svg" width="600" height="600" viewBox="0 0 600 600" version="1.1"><path d="M 65 268 L 65 471 300 471 L 535 471 535 268 L 535 65 300 65 L 65 65 65 268 M 85 267.498 L 85 450 300.003 450 L 515.005 450 514.753 267.750 L 514.500 85.500 299.750 85.248 L 85 84.995 85 267.498 M 257 557 L 257 578 300 578 L 343 578 343 557 L 343 536 300 536 L 257 536 257 557" stroke="none" fill="#555753" fill-rule="evenodd"/><path d="M 477.995 85.743 L 513.991 86.025 514.252 193.762 L 514.513 301.500 514.507 193.500 L 514.500 85.500 478.250 85.481 L 442 85.462 477.995 85.743 M 535.482 366 C 535.482 424.025, 535.602 447.762, 535.750 418.750 C 535.897 389.737, 535.897 342.262, 535.750 313.250 C 535.602 284.237, 535.482 307.975, 535.482 366 M 514.469 392 C 514.469 424.175, 514.595 437.337, 514.749 421.250 C 514.904 405.162, 514.904 378.837, 514.749 362.750 C 514.595 346.662, 514.469 359.825, 514.469 392 M 589.250 357.013 L 579 368.352 579 412.218 C 579 472.803, 575.926 484.256, 555.323 500.426 C 539.069 513.183, 533.953 514.237, 485.723 514.752 C 441.248 515.227, 447.499 513.376, 431.499 530.801 L 426.631 536.102 478.066 535.775 C 529.500 535.449, 529.500 535.449, 538.500 532.666 C 567.181 523.796, 588.460 502.456, 597.185 473.815 C 599.374 466.630, 600.960 394.788, 599.795 355.587 L 599.500 345.674 589.250 357.013 M 294.314 535.749 C 303.561 535.914, 318.411 535.913, 327.314 535.748 C 336.216 535.582, 328.650 535.447, 310.500 535.448 C 292.350 535.448, 285.066 535.583, 294.314 535.749" stroke="none" fill="#656563" fill-rule="evenodd"/><path d="M 69.375 1.083 C 40.479 5.956, 14.122 29.164, 3.874 58.756 C -0.602 71.683, -1.644 458.103, 2.757 473.285 C 16.343 520.157, 43.158 535.218, 114.010 535.773 L 157.521 536.113 166.949 525.557 L 176.378 515 245.939 514.872 C 478.870 514.442, 527.913 513.674, 536.695 510.314 C 556.688 502.667, 570.690 487.442, 576.162 467.399 C 578.319 459.500, 578.319 459.500, 578.721 265.500 L 579.123 71.500 586.617 63.040 C 595.351 53.179, 595.319 53.623, 588.198 41.505 C 578.319 24.692, 560.709 10.621, 541 3.792 C 531.725 0.578, 87.499 -1.973, 69.375 1.083 M 71.405 22.408 C 48.819 27.608, 32.069 42.611, 24.290 64.610 C 20.700 74.763, 19.730 452.962, 23.260 466 C 29.576 489.323, 46.469 506.110, 69.568 512.017 C 76.944 513.904, 80.669 513.997, 146.410 513.931 L 215.500 513.862 233.672 493.181 L 251.844 472.500 158.172 471.910 C 106.652 471.585, 170.587 471.473, 300.250 471.661 L 536 472.002 536 311.641 L 536 151.280 557 127.524 L 578 103.767 577.983 90.633 C 577.936 55.688, 561.174 31.721, 531.314 23.906 C 521.034 21.215, 82.786 19.788, 71.405 22.408 M 122 302 L 85.500 302.538 121.691 302.769 C 144.992 302.918, 158.102 302.644, 158.500 302 C 158.840 301.450, 158.979 301.104, 158.809 301.231 C 158.639 301.358, 142.075 301.704, 122 302 M 419.250 302.749 C 436.712 302.903, 465.287 302.903, 482.750 302.749 C 500.212 302.596, 485.925 302.471, 451 302.471 C 416.075 302.471, 401.787 302.596, 419.250 302.749 M 93.500 578.763 C 85.206 580.552, 82.906 592.949, 89.939 597.957 C 94.477 601.188, 505.523 601.188, 510.061 597.957 C 515.525 594.066, 515.893 586.187, 510.835 581.342 C 508.170 578.789, 104.935 576.297, 93.500 578.763" stroke="none" fill="#8f8f82" fill-rule="evenodd"/><path d="" stroke="none" fill="#000000" fill-rule="evenodd"/><path d="M 327.500 103.362 C 319.021 107.303, 322 97.482, 293.873 214.229 C 284.899 251.480, 277.254 281.405, 276.885 280.729 C 276.516 280.053, 274.956 275.900, 273.418 271.500 C 271.880 267.100, 270.367 263.275, 270.055 263 C 269.744 262.725, 268.227 260.807, 266.685 258.738 C 254.727 242.698, 239.633 251.363, 234.001 277.500 C 232.224 285.750, 230.467 292.831, 230.098 293.237 C 229.729 293.642, 226.337 270.467, 222.561 241.737 C 215.153 185.376, 214.881 184.186, 208.532 180.466 C 196.940 173.673, 182.209 181.101, 181.946 193.872 C 181.916 195.317, 176.600 220.350, 170.132 249.500 L 158.373 302.500 122.186 302.762 L 86 303.025 86 318.560 L 86 334.095 131.250 333.797 C 189.545 333.414, 185.276 335.195, 191.838 308.525 C 195.364 294.196, 197 289.344, 197 293.217 C 197 301.184, 211.089 399.206, 212.556 401.445 C 219.942 412.718, 240.350 409.299, 242.498 396.429 C 243.360 391.262, 256.165 331.585, 256.492 331.211 C 256.630 331.053, 258.244 334.653, 260.078 339.211 C 261.912 343.770, 263.753 347.950, 264.171 348.500 C 271.068 357.583, 274.387 359.464, 282.347 358.804 C 294.953 357.759, 293.739 360.776, 311.577 286.121 C 323.657 235.564, 326.618 224.382, 327.200 227.121 C 327.595 228.979, 331.568 272.125, 336.030 323 C 340.492 373.875, 344.377 417.507, 344.664 419.960 C 346.327 434.178, 367.182 438.135, 376.174 425.938 C 377.163 424.597, 383.275 403.475, 389.758 379 L 401.545 334.500 457.772 334.242 L 514 333.983 514 318.492 L 514 303 448.968 303 C 396.305 303, 383.315 303.259, 380.671 304.364 C 376.192 306.235, 372.322 311.132, 371.507 315.960 C 371.132 318.176, 370.517 320.180, 370.140 320.414 C 369.506 320.806, 351.868 126.215, 351.929 119.500 C 352.033 108.051, 337.734 98.605, 327.500 103.362" stroke="none" fill="#8ae234" fill-rule="evenodd"/><path d="M 586.718 62.855 L 578.935 71.697 578.984 219.531 C 579.040 392.362, 577.298 370.251, 589.774 356.471 L 600.048 345.124 599.774 206.812 C 599.500 68.500, 599.500 68.500, 597 61.256 L 594.500 54.012 586.718 62.855 M 64.463 65.248 C 64.201 65.937, 64.104 157.625, 64.246 269 L 64.505 471.500 64.752 268.250 L 65 65 299.995 65 L 534.990 65 535.252 163 L 535.515 261 535.507 162.750 L 535.500 64.500 300.219 64.248 C 112.520 64.047, 64.843 64.249, 64.463 65.248 M 85.462 86.250 C 85.201 86.938, 85.103 169.175, 85.246 269 L 85.505 450.500 85.753 268.253 L 86 86.005 264.250 85.750 L 442.500 85.494 264.219 85.247 C 122.331 85.050, 85.840 85.255, 85.462 86.250 M 514.407 318 C 514.407 327.075, 514.559 330.788, 514.744 326.250 C 514.929 321.712, 514.929 314.288, 514.744 309.750 C 514.559 305.212, 514.407 308.925, 514.407 318 M 578.430 435 C 578.430 447.925, 578.573 453.212, 578.747 446.750 C 578.921 440.288, 578.921 429.712, 578.747 423.250 C 578.573 416.788, 578.430 422.075, 578.430 435 M 417.250 471.750 C 439.112 471.900, 474.887 471.900, 496.750 471.750 C 518.612 471.599, 500.725 471.476, 457 471.476 C 413.275 471.476, 395.387 471.599, 417.250 471.750 M 258.775 514.991 L 176.050 515.500 168.775 523.573 C 164.774 528.012, 160.672 532.592, 159.661 533.750 C 157.822 535.854, 157.822 535.854, 292.454 535.757 L 427.086 535.661 436.293 525.423 L 445.500 515.184 482 514.829 C 502.075 514.634, 478.675 514.476, 430 514.479 C 381.325 514.481, 304.274 514.712, 258.775 514.991 M 278.250 578.749 C 290.213 578.908, 309.788 578.908, 321.750 578.749 C 333.713 578.589, 323.925 578.459, 300 578.459 C 276.075 578.459, 266.288 578.589, 278.250 578.749" stroke="none" fill="#71726f" fill-rule="evenodd"/><path d="M 71.405 22.408 C 48.819 27.608, 32.069 42.611, 24.290 64.610 C 20.700 74.763, 19.730 452.962, 23.260 466 C 29.576 489.323, 46.469 506.110, 69.568 512.017 C 76.944 513.904, 80.669 513.997, 146.410 513.931 L 215.500 513.862 233.672 493.181 L 251.844 472.500 157.922 472.245 L 64 471.990 64 267.995 L 64 64 299.989 64 L 535.979 64 536.239 107.364 L 536.500 150.728 557.250 127.244 L 578 103.761 577.983 90.630 C 577.936 55.688, 561.173 31.721, 531.314 23.906 C 521.034 21.215, 82.786 19.788, 71.405 22.408" stroke="none" fill="#cdcdc7" fill-rule="evenodd"/><path d="M 86 194.012 L 86 302.025 122.186 301.762 L 158.373 301.500 170.132 248.500 C 176.600 219.350, 181.916 194.240, 181.946 192.700 C 182.123 183.529, 193.545 175.430, 202.750 177.949 C 215.029 181.310, 214.627 180.041, 222.608 240.712 C 226.385 269.429, 229.767 292.604, 230.122 292.212 C 230.478 291.820, 232.225 284.750, 234.003 276.500 C 240.912 244.458, 263.232 241.636, 273.551 271.500 C 275.072 275.900, 276.602 279.835, 276.952 280.244 C 277.301 280.653, 286.724 243.078, 297.890 196.744 C 309.295 149.419, 319.005 111.169, 320.047 109.462 C 325.831 99.986, 340.553 99.738, 348.334 108.986 C 351.651 112.927, 350.558 103.228, 360.699 218.750 C 365.540 273.887, 369.744 318.999, 370.043 319 C 370.341 319, 371.120 317, 371.774 314.557 C 373.021 309.892, 375.500 306.941, 380.500 304.165 C 383.197 302.668, 390.086 302.471, 448.750 302.209 L 514 301.918 514 193.959 L 514 86 300 86 L 86 86 86 194.012 M 311.562 287.279 C 296.859 348.969, 295.770 352.589, 290.815 356.288 C 279.833 364.488, 266.926 357.456, 260.002 339.500 C 258.729 336.200, 257.391 333.155, 257.027 332.733 C 256.532 332.158, 246.225 377.969, 242.403 397.732 C 240.458 407.785, 225.688 411.903, 216.207 405.035 C 210.698 401.044, 210.836 401.695, 203.365 344.796 C 199.631 316.358, 196.368 293.299, 196.114 293.552 C 195.861 293.806, 193.982 300.810, 191.939 309.118 C 185.553 335.089, 189.619 333.421, 131.750 333.797 L 86 334.094 86 392.047 L 86 450 300 450 L 514 450 514 392 L 514 334 458.028 334 L 402.056 334 400.562 339.250 C 399.741 342.137, 394.316 362.422, 388.508 384.326 C 377.180 427.042, 376.810 428.011, 370.597 431.253 C 357.957 437.849, 344.011 429.973, 343.996 416.230 C 343.990 411.416, 327.221 225.888, 326.749 225.416 C 326.553 225.219, 319.718 253.058, 311.562 287.279" stroke="none" fill="#5b7799" fill-rule="evenodd"/></svg>